P2 
#
3 3
255
42 43 43 
128 128 128 
213 213 213 
