P2 
#
20 20
255
6 7 7 7 7 7 7 7 7 7 7 7 7 7 7 7 7 7 
7 7 
19 19 19 19 19 19 19 19 19 19 19 19 19 19 19 19 19 19 
19 19 
32 32 32 32 32 32 32 32 32 32 32 32 32 32 32 32 32 32 
32 32 
45 45 45 45 45 45 45 45 45 45 45 45 45 45 45 45 45 45 
45 45 
57 57 57 57 57 57 57 57 57 58 58 58 58 58 58 58 58 58 
58 58 
70 70 70 70 70 70 70 70 70 70 70 71 71 71 71 71 71 71 
71 71 
83 83 83 83 83 83 83 83 83 83 83 83 83 83 83 83 83 83 
83 83 
96 96 96 96 96 96 96 96 96 96 96 96 96 96 96 96 96 96 
96 96 
109 109 109 109 109 109 109 109 109 109 109 109 109 109 109 109 109 109 
109 109 
121 121 121 121 121 121 121 121 121 121 121 121 121 121 121 121 121 121 
121 122 
134 134 134 134 134 134 134 134 134 134 134 134 134 134 134 134 134 134 
134 134 
146 146 146 147 147 147 147 147 147 147 147 147 147 147 147 147 147 147 
147 147 
159 159 159 159 159 160 160 160 160 160 160 160 160 160 160 160 160 160 
160 160 
172 172 172 172 172 172 172 173 173 173 173 173 173 173 173 173 173 173 
173 173 
185 185 185 185 185 185 185 185 185 185 185 185 185 185 185 185 185 185 
185 185 
198 198 198 198 198 198 198 198 198 198 198 198 198 198 198 198 198 198 
198 198 
210 210 210 210 210 210 210 210 210 210 210 210 210 211 211 211 211 211 
211 211 
223 223 223 223 223 223 223 223 223 223 223 223 223 223 223 224 224 224 
224 224 
236 236 236 236 236 236 236 236 236 236 236 236 236 236 236 236 236 237 
237 237 
249 249 249 249 249 249 249 249 249 249 249 249 249 249 249 249 249 249 
249 249 
