P2 
#
30 30
255
13 10 6 8 10 7 8 11 9 7 11 9 7 8 11 7 8 11 
9 7 11 9 7 8 11 7 8 11 9 7 
11 9 7 11 11 7 10 11 7 11 11 12 7 11 12 7 11 11 
7 11 11 12 7 11 12 7 11 11 7 11 
11 12 7 13 13 7 19 19 19 20 19 19 20 19 19 19 19 19 
19 20 19 19 20 19 19 19 19 19 19 20 
19 19 20 19 19 19 19 19 19 32 28 32 28 32 32 28 32 28 
32 32 28 32 28 32 32 28 32 28 32 32 
28 32 28 32 32 28 32 28 32 32 27 32 32 35 32 35 32 32 
35 32 35 32 32 35 32 35 32 32 35 32 
35 32 32 35 32 35 32 32 35 32 35 32 32 36 32 45 44 45 
44 45 45 44 45 44 45 45 44 45 44 45 
45 44 45 44 45 45 44 45 44 45 45 44 45 44 45 45 45 45 
57 54 57 54 57 57 54 57 54 57 57 54 
57 54 57 57 54 57 54 57 57 54 57 54 57 57 54 57 54 57 
57 53 58 57 60 58 60 58 58 60 58 60 
58 58 60 58 60 58 58 60 58 61 58 58 61 58 61 58 58 61 
58 61 58 58 62 58 70 70 70 70 70 70 
70 70 70 70 70 70 70 70 70 70 70 70 70 71 71 70 71 70 
71 71 70 71 70 71 71 70 71 83 79 83 
79 83 83 79 83 79 83 83 79 83 79 83 83 79 83 80 83 83 
80 83 80 83 83 80 83 80 83 83 79 83 
83 86 83 86 83 83 86 83 86 83 83 86 83 86 83 83 86 83 
86 83 83 86 83 86 83 83 86 83 86 83 
83 87 83 96 96 96 95 96 96 95 96 96 96 96 96 96 95 96 
96 95 96 96 96 96 96 96 95 96 96 95 
96 96 96 96 96 96 108 105 109 105 108 109 105 108 105 109 108 105 
109 105 108 109 105 108 105 109 108 105 109 105 
108 109 105 108 105 109 108 104 109 108 111 109 111 108 109 111 108 111 
109 108 111 109 111 108 109 111 108 111 109 108 
111 109 111 108 109 111 108 111 109 109 113 109 121 121 121 120 121 121 
120 121 121 121 121 121 121 121 121 121 121 121 
121 121 121 121 121 121 121 121 121 121 121 121 121 121 122 133 130 134 
130 133 134 130 133 130 134 134 130 134 130 134 
134 130 134 130 134 134 130 134 130 134 134 130 134 130 134 134 130 134 
134 137 134 136 134 134 137 134 137 134 134 137 
134 137 134 134 137 134 137 134 134 137 134 137 134 134 137 134 137 134 
134 138 134 146 146 146 146 146 147 146 147 146 
147 147 146 147 146 147 147 146 147 147 147 147 147 147 147 147 147 147 
147 147 147 147 147 147 159 156 159 156 159 159 
156 159 156 159 159 156 159 156 159 159 156 159 156 160 159 156 160 156 
160 160 156 160 156 160 160 155 160 160 162 160 
162 160 160 162 160 162 160 160 163 160 163 160 160 163 160 163 160 160 
163 160 163 160 160 163 160 163 160 160 164 160 
172 172 172 172 172 172 172 172 172 172 172 172 173 172 173 173 172 173 
172 173 173 172 173 172 173 173 172 173 172 173 
173 172 173 185 181 185 181 185 185 181 185 181 185 185 182 185 182 185 
185 182 185 182 185 185 182 185 182 185 185 182 
185 182 185 185 181 185 185 188 185 188 185 185 188 185 188 185 185 188 
185 188 185 185 188 185 188 185 185 188 185 188 
185 185 188 185 188 185 185 189 185 198 197 198 197 198 198 197 198 197 
198 198 197 198 197 198 198 197 198 197 198 198 
197 198 197 198 198 197 198 197 198 198 197 198 210 207 210 207 210 210 
207 210 207 210 210 207 210 207 210 210 207 210 
207 210 210 207 210 207 210 210 207 210 207 210 210 206 210 210 213 210 
213 210 210 213 210 213 210 210 213 211 213 210 
211 213 211 213 211 211 213 211 213 211 211 214 211 214 211 211 215 211 
223 223 223 223 223 223 223 223 223 223 223 223 
223 223 223 223 223 223 223 223 223 223 223 223 223 224 223 224 223 224 
224 223 224 236 232 236 232 236 236 232 236 232 
